<?xml version="1.0" encoding="utf-8"?>
<!-- Generator: Adobe Illustrator 16.0.3, SVG Export Plug-In . SVG Version: 6.00 Build 0)  -->
<!DOCTYPE svg PUBLIC "-//W3C//DTD SVG 1.1//EN" "http://www.w3.org/Graphics/SVG/1.1/DTD/svg11.dtd">
<svg version="1.1" id="Layer_1" xmlns="http://www.w3.org/2000/svg" xmlns:xlink="http://www.w3.org/1999/xlink" x="0px" y="0px"
	 width="485.301px" height="103.96px" viewBox="0 0 485.301 103.96" enable-background="new 0 0 485.301 103.96"
	 xml:space="preserve">
<g>
	<path fill="#0DFF00" stroke="#282828" stroke-miterlimit="10" d="M8.695,88.479L5.31,49.781l6.868-0.602l3.386,38.698L8.695,88.479
		z"/>
	<path fill="#0DFF00" stroke="#282828" stroke-miterlimit="10" d="M59.519,84.032l-3.513-7.597l-13.261,1.16l-2.008,8.08
		l-7.634,0.668l11.994-40.576l3.012-0.264L67.1,83.369L59.519,84.032z M47.639,57.47l-3.399,14.697l9.299-0.813L47.639,57.47z"/>
	<path fill="#0DFF00" stroke="#282828" stroke-miterlimit="10" d="M107.28,79.881l-6.657,0.582l-5.841-20.517l-5.924,22.052
		l-2.455,0.215l-9.662-20.688l-2.349,21.232l-6.63,0.58l4.404-39.406l3.646-0.319l10.654,25.34l5.908-26.789l3.619-0.316
		L107.28,79.881z"/>
	<path fill="#0DFF00" stroke="#282828" stroke-miterlimit="10" d="M149.621,76.149l-11.727-15.078
		c-1.041,0.075-2.499,0.14-4.375,0.197l1.415,16.166l-7.133,0.624l-3.386-38.698c0.388-0.034,1.87-0.23,4.447-0.589
		s4.658-0.607,6.243-0.746c9.826-0.859,15.072,2.515,15.738,10.122c0.2,2.29-0.295,4.436-1.486,6.438s-2.783,3.482-4.776,4.437
		l12.964,16.434L149.621,76.149z M132.071,44.706l0.94,10.751c1.277-0.005,2.25-0.037,2.919-0.096
		c2.87-0.251,4.936-0.84,6.194-1.766c1.259-0.927,1.785-2.562,1.581-4.903c-0.167-1.901-0.996-3.169-2.489-3.802
		c-1.493-0.632-3.771-0.814-6.836-0.546C133.642,44.409,132.871,44.529,132.071,44.706z"/>
	<path fill="#0DFF00" stroke="#282828" stroke-miterlimit="10" d="M164.863,41.97l0.793,9.062l12.785-1.119l0.511,5.838
		l-12.785,1.118l1.015,11.597l17.54-1.534l0.534,6.102l-24.408,2.135l-3.386-38.698l24.698-2.16l0.534,6.102L164.863,41.97z"/>
	<path fill="#0DFF00" stroke="#282828" stroke-miterlimit="10" d="M214.206,70.499l-3.512-7.598l-13.261,1.16l-2.008,8.081
		l-7.634,0.668l11.994-40.576l3.011-0.264l18.991,37.865L214.206,70.499z M202.327,43.937l-3.399,14.697l9.298-0.813L202.327,43.937
		z"/>
	<path fill="#0DFF00" stroke="#282828" stroke-miterlimit="10" d="M225.883,69.478l-3.386-38.698l6.868-0.601l2.852,32.597
		l17.487-1.53l0.533,6.102L225.883,69.478z"/>
	<path fill="#0DFF00" stroke="#282828" stroke-miterlimit="10" d="M301.317,63.41l-2.826,0.247l-10.588-23.668l-6.08,25.127
		l-2.826,0.247l-16.138-38.115l7.158-0.626l9.307,22.716l5.803-24.038l3.012-0.264l9.914,22.663l5.195-23.984l7.159-0.627
		L301.317,63.41z"/>
	<path fill="#0DFF00" stroke="#282828" stroke-miterlimit="10" d="M321.904,28.23l0.793,9.062l12.784-1.119l0.511,5.838
		l-12.784,1.118l1.015,11.597l17.539-1.534l0.533,6.102l-24.407,2.135l-3.386-38.698l24.698-2.16l0.534,6.102L321.904,28.23z"/>
	<path fill="#0DFF00" stroke="#282828" stroke-miterlimit="10" d="M360.494,57.7l-11.834,1.036l-3.383-38.672
		c5.19-0.703,8.835-1.146,10.929-1.329c4.016-0.352,7.229,0.232,9.644,1.752c2.413,1.519,3.759,3.872,4.037,7.06
		c0.269,3.063-1.139,5.627-4.225,7.689c4.955,1.252,7.66,4.493,8.118,9.723c0.308,3.523-0.777,6.436-3.255,8.737
		C368.046,55.998,364.703,57.332,360.494,57.7z M352.625,24.958l0.811,9.271c1.063-0.021,2.176-0.084,3.338-0.186
		c4.474-0.392,6.563-2.269,6.269-5.633c-0.261-2.976-2.425-4.286-6.493-3.93C355.475,24.575,354.167,24.734,352.625,24.958z
		 M353.906,39.592l1.118,12.785c1.401,0.002,2.535-0.035,3.397-0.111c3.064-0.268,5.242-0.981,6.533-2.142
		c1.292-1.16,1.833-2.946,1.621-5.358c-0.192-2.201-0.975-3.748-2.348-4.64c-1.374-0.892-3.664-1.196-6.868-0.916
		C356.69,39.269,355.539,39.396,353.906,39.592z"/>
	<path fill="#0DFF00" stroke="#282828" stroke-miterlimit="10" d="M378.825,53.941l1.997-6.377c2.878,1.664,5.63,2.383,8.253,2.153
		c4.033-0.354,5.926-1.938,5.68-4.757c-0.115-1.321-0.701-2.538-1.757-3.651c-1.057-1.115-3.133-2.286-6.23-3.515
		s-5.202-2.277-6.316-3.147c-1.114-0.869-2.007-1.94-2.678-3.213c-0.67-1.271-1.075-2.71-1.216-4.313
		c-0.262-2.993,0.618-5.572,2.637-7.736c2.021-2.164,4.748-3.396,8.181-3.697c4.474-0.392,7.831,0.158,10.073,1.647l-1.569,6.1
		c-2.564-1.514-5.184-2.154-7.86-1.92c-1.585,0.139-2.776,0.664-3.576,1.576c-0.798,0.913-1.139,2.039-1.021,3.377
		c0.193,2.219,2.854,4.312,7.977,6.276c2.698,1.041,4.667,2.045,5.905,3.01c1.238,0.966,2.219,2.131,2.94,3.496
		c0.724,1.365,1.162,2.919,1.314,4.663c0.274,3.135-0.737,5.823-3.035,8.063c-2.297,2.242-5.523,3.545-9.68,3.908
		C385.233,56.202,381.893,55.555,378.825,53.941z"/>
	<path fill="#0DFF00" stroke="#282828" stroke-miterlimit="10" d="M408.65,53.487l-3.386-38.698l6.867-0.601l3.386,38.698
		L408.65,53.487z"/>
	<path fill="#0DFF00" stroke="#282828" stroke-miterlimit="10" d="M436.466,18.208l2.852,32.597l-6.868,0.601l-2.852-32.597
		l-12.31,1.077l-0.534-6.102l32.041-2.804l0.534,6.102L436.466,18.208z"/>
	<path fill="#0DFF00" stroke="#282828" stroke-miterlimit="10" d="M460.69,16.089l0.793,9.061l12.784-1.118l0.511,5.837
		l-12.784,1.119l1.015,11.597l17.539-1.535l0.533,6.102l-24.407,2.136l-3.386-38.698l24.698-2.161l0.534,6.102L460.69,16.089z"/>
</g>
</svg>
